# xmcd
# Copyright (C) 1995-1998 Ti Kan
#
# Track frame offsets:
#       150
#       13177
#       31362
#       50842
#       76087
#       94054
#       111613
#
# Disc length: 1697 seconds
#
# Revision: 0
# Processed by: cddbd v1.5.2PL0 Copyright (c) Steve Scherf et al.
# Submitted via: CD-Import v1.0
#
DISCID=57069f07
DTITLE=Queen - Rock Live Montreal
DYEAR=1900
DGENRE=
TTITLE0=Let Me Entertain You
TTITLE1=Play The Game
TTITLE2=Save Me
TTITLE3=Now I`m Here
TTITLE4=Love Of My Live
TTITLE5=Under Pressure
TTITLE6=Keep Your Self Alive
EXTD=
EXTT0=
EXTT1=
EXTT2=
EXTT3=
EXTT4=
EXTT5=
EXTT6=
PLAYORDER=
